<mxfile host="app.diagrams.net" agent="Mozilla/5.0 (Windows NT 10.0; Win64; x64) AppleWebKit/537.36 (KHTML, like Gecko) Chrome/134.0.0.0 Safari/537.36 Edg/134.0.0.0" version="26.1.0" pages="4">
  <diagram name="Exercise-2" id="ggByGUf3jxe_JthkVuXm">
    <mxGraphModel dx="1174" dy="1623" grid="0" gridSize="10" guides="1" tooltips="1" connect="1" arrows="1" fold="1" page="0" pageScale="1" pageWidth="850" pageHeight="1100" math="0" shadow="0">
      <root>
        <mxCell id="0" />
        <mxCell id="1" parent="0" />
        <mxCell id="aW7nNPEuJqpVthHq0oI7-1" value="char Grade (int score)" style="rounded=1;whiteSpace=wrap;html=1;" parent="1" vertex="1">
          <mxGeometry x="23" y="-451" width="120" height="60" as="geometry" />
        </mxCell>
        <mxCell id="aW7nNPEuJqpVthHq0oI7-2" value="int res" style="rounded=1;whiteSpace=wrap;html=1;" parent="1" vertex="1">
          <mxGeometry x="25.25" y="-343" width="120" height="60" as="geometry" />
        </mxCell>
        <mxCell id="aW7nNPEuJqpVthHq0oI7-3" value="score &amp;lt; 0 || score &amp;gt; 10" style="rhombus;whiteSpace=wrap;html=1;" parent="1" vertex="1">
          <mxGeometry x="23" y="-241" width="129.5" height="80" as="geometry" />
        </mxCell>
        <mxCell id="aW7nNPEuJqpVthHq0oI7-4" value="return &#39;I&#39;;" style="rounded=1;whiteSpace=wrap;html=1;" parent="1" vertex="1">
          <mxGeometry x="282" y="-231" width="120" height="60" as="geometry" />
        </mxCell>
        <mxCell id="aW7nNPEuJqpVthHq0oI7-5" value="score &amp;gt;= 9" style="rhombus;whiteSpace=wrap;html=1;" parent="1" vertex="1">
          <mxGeometry x="23.25" y="-120" width="126.25" height="80" as="geometry" />
        </mxCell>
        <mxCell id="aW7nNPEuJqpVthHq0oI7-6" value="res = &#39;A&#39;;" style="rounded=1;whiteSpace=wrap;html=1;" parent="1" vertex="1">
          <mxGeometry x="279" y="-106" width="120" height="60" as="geometry" />
        </mxCell>
        <mxCell id="aW7nNPEuJqpVthHq0oI7-7" value="score &amp;gt;= 8" style="rhombus;whiteSpace=wrap;html=1;" parent="1" vertex="1">
          <mxGeometry x="18.63" y="22" width="132.25" height="80" as="geometry" />
        </mxCell>
        <mxCell id="aW7nNPEuJqpVthHq0oI7-8" value="res = &#39;B&#39;;" style="rounded=1;whiteSpace=wrap;html=1;" parent="1" vertex="1">
          <mxGeometry x="279" y="32" width="120" height="60" as="geometry" />
        </mxCell>
        <mxCell id="aW7nNPEuJqpVthHq0oI7-9" value="score &amp;gt;= 6.5" style="rhombus;whiteSpace=wrap;html=1;" parent="1" vertex="1">
          <mxGeometry x="13.629999999999999" y="164" width="137.25" height="80" as="geometry" />
        </mxCell>
        <mxCell id="aW7nNPEuJqpVthHq0oI7-10" value="res = &#39;C&#39;;" style="rounded=1;whiteSpace=wrap;html=1;" parent="1" vertex="1">
          <mxGeometry x="282" y="174" width="120" height="60" as="geometry" />
        </mxCell>
        <mxCell id="aW7nNPEuJqpVthHq0oI7-11" value="score &amp;gt;= 5" style="rhombus;whiteSpace=wrap;html=1;" parent="1" vertex="1">
          <mxGeometry x="11.379999999999999" y="296" width="137.25" height="80" as="geometry" />
        </mxCell>
        <mxCell id="aW7nNPEuJqpVthHq0oI7-12" value="res = &#39;D&#39;;" style="rounded=1;whiteSpace=wrap;html=1;" parent="1" vertex="1">
          <mxGeometry x="282" y="309" width="120" height="60" as="geometry" />
        </mxCell>
        <mxCell id="aW7nNPEuJqpVthHq0oI7-13" value="res = &#39;F&#39;;" style="rounded=1;whiteSpace=wrap;html=1;" parent="1" vertex="1">
          <mxGeometry x="19.31" y="434" width="120" height="60" as="geometry" />
        </mxCell>
        <mxCell id="aW7nNPEuJqpVthHq0oI7-14" value="return res;" style="rounded=1;whiteSpace=wrap;html=1;" parent="1" vertex="1">
          <mxGeometry x="20.689999999999998" y="543" width="120" height="60" as="geometry" />
        </mxCell>
        <mxCell id="aW7nNPEuJqpVthHq0oI7-15" value="exit;" style="rounded=1;whiteSpace=wrap;html=1;" parent="1" vertex="1">
          <mxGeometry x="20.689999999999998" y="664" width="120" height="60" as="geometry" />
        </mxCell>
        <mxCell id="aW7nNPEuJqpVthHq0oI7-16" value="(0)" style="text;html=1;align=center;verticalAlign=middle;whiteSpace=wrap;rounded=0;" parent="1" vertex="1">
          <mxGeometry x="-57" y="-432" width="60" height="30" as="geometry" />
        </mxCell>
        <mxCell id="aW7nNPEuJqpVthHq0oI7-17" value="(1)" style="text;html=1;align=center;verticalAlign=middle;whiteSpace=wrap;rounded=0;" parent="1" vertex="1">
          <mxGeometry x="-51" y="-328" width="60" height="30" as="geometry" />
        </mxCell>
        <mxCell id="aW7nNPEuJqpVthHq0oI7-18" value="(2)" style="text;html=1;align=center;verticalAlign=middle;whiteSpace=wrap;rounded=0;" parent="1" vertex="1">
          <mxGeometry x="-51" y="-216" width="60" height="30" as="geometry" />
        </mxCell>
        <mxCell id="aW7nNPEuJqpVthHq0oI7-19" value="(3)" style="text;html=1;align=center;verticalAlign=middle;whiteSpace=wrap;rounded=0;" parent="1" vertex="1">
          <mxGeometry x="362" y="-265" width="60" height="30" as="geometry" />
        </mxCell>
        <mxCell id="aW7nNPEuJqpVthHq0oI7-20" value="(4)" style="text;html=1;align=center;verticalAlign=middle;whiteSpace=wrap;rounded=0;" parent="1" vertex="1">
          <mxGeometry x="-51" y="-98" width="60" height="30" as="geometry" />
        </mxCell>
        <mxCell id="aW7nNPEuJqpVthHq0oI7-21" value="(5)" style="text;html=1;align=center;verticalAlign=middle;whiteSpace=wrap;rounded=0;" parent="1" vertex="1">
          <mxGeometry x="357" y="-136" width="60" height="30" as="geometry" />
        </mxCell>
        <mxCell id="aW7nNPEuJqpVthHq0oI7-22" value="(6)" style="text;html=1;align=center;verticalAlign=middle;whiteSpace=wrap;rounded=0;" parent="1" vertex="1">
          <mxGeometry x="-48.62" y="47" width="60" height="30" as="geometry" />
        </mxCell>
        <mxCell id="aW7nNPEuJqpVthHq0oI7-23" value="(7)" style="text;html=1;align=center;verticalAlign=middle;whiteSpace=wrap;rounded=0;" parent="1" vertex="1">
          <mxGeometry x="357" y="8" width="60" height="30" as="geometry" />
        </mxCell>
        <mxCell id="aW7nNPEuJqpVthHq0oI7-24" value="(8)" style="text;html=1;align=center;verticalAlign=middle;whiteSpace=wrap;rounded=0;" parent="1" vertex="1">
          <mxGeometry x="-51" y="189" width="60" height="30" as="geometry" />
        </mxCell>
        <mxCell id="aW7nNPEuJqpVthHq0oI7-25" value="(9&lt;span style=&quot;background-color: transparent; color: light-dark(rgb(0, 0, 0), rgb(255, 255, 255));&quot;&gt;)&lt;/span&gt;" style="text;html=1;align=center;verticalAlign=middle;whiteSpace=wrap;rounded=0;" parent="1" vertex="1">
          <mxGeometry x="357" y="144" width="60" height="30" as="geometry" />
        </mxCell>
        <mxCell id="aW7nNPEuJqpVthHq0oI7-26" value="(10)" style="text;html=1;align=center;verticalAlign=middle;whiteSpace=wrap;rounded=0;" parent="1" vertex="1">
          <mxGeometry x="-48.620000000000005" y="324" width="60" height="30" as="geometry" />
        </mxCell>
        <mxCell id="aW7nNPEuJqpVthHq0oI7-27" value="(11)" style="text;html=1;align=center;verticalAlign=middle;whiteSpace=wrap;rounded=0;" parent="1" vertex="1">
          <mxGeometry x="357" y="283" width="60" height="30" as="geometry" />
        </mxCell>
        <mxCell id="aW7nNPEuJqpVthHq0oI7-28" value="(12)" style="text;html=1;align=center;verticalAlign=middle;whiteSpace=wrap;rounded=0;" parent="1" vertex="1">
          <mxGeometry x="-51" y="452" width="60" height="30" as="geometry" />
        </mxCell>
        <mxCell id="aW7nNPEuJqpVthHq0oI7-29" value="(13)" style="text;html=1;align=center;verticalAlign=middle;whiteSpace=wrap;rounded=0;" parent="1" vertex="1">
          <mxGeometry x="-51" y="561" width="60" height="30" as="geometry" />
        </mxCell>
        <mxCell id="aW7nNPEuJqpVthHq0oI7-30" value="(14)" style="text;html=1;align=center;verticalAlign=middle;whiteSpace=wrap;rounded=0;" parent="1" vertex="1">
          <mxGeometry x="-51" y="683" width="60" height="30" as="geometry" />
        </mxCell>
        <mxCell id="aW7nNPEuJqpVthHq0oI7-31" value="" style="endArrow=classic;html=1;rounded=0;fontSize=12;startSize=8;endSize=8;curved=1;exitX=0.5;exitY=1;exitDx=0;exitDy=0;" parent="1" source="aW7nNPEuJqpVthHq0oI7-1" target="aW7nNPEuJqpVthHq0oI7-2" edge="1">
          <mxGeometry width="50" height="50" relative="1" as="geometry">
            <mxPoint x="190" y="-245" as="sourcePoint" />
            <mxPoint x="240" y="-295" as="targetPoint" />
          </mxGeometry>
        </mxCell>
        <mxCell id="aW7nNPEuJqpVthHq0oI7-32" value="" style="endArrow=classic;html=1;rounded=0;fontSize=12;startSize=8;endSize=8;curved=1;exitX=0.5;exitY=1;exitDx=0;exitDy=0;entryX=0.5;entryY=0;entryDx=0;entryDy=0;" parent="1" source="aW7nNPEuJqpVthHq0oI7-2" target="aW7nNPEuJqpVthHq0oI7-3" edge="1">
          <mxGeometry width="50" height="50" relative="1" as="geometry">
            <mxPoint x="81" y="-281" as="sourcePoint" />
            <mxPoint x="235.75" y="-293" as="targetPoint" />
          </mxGeometry>
        </mxCell>
        <mxCell id="aW7nNPEuJqpVthHq0oI7-33" value="" style="endArrow=classic;html=1;rounded=0;fontSize=12;startSize=8;endSize=8;curved=1;exitX=1;exitY=0.5;exitDx=0;exitDy=0;entryX=0;entryY=0.5;entryDx=0;entryDy=0;" parent="1" source="aW7nNPEuJqpVthHq0oI7-3" target="aW7nNPEuJqpVthHq0oI7-4" edge="1">
          <mxGeometry width="50" height="50" relative="1" as="geometry">
            <mxPoint x="190" y="-45" as="sourcePoint" />
            <mxPoint x="240" y="-95" as="targetPoint" />
          </mxGeometry>
        </mxCell>
        <mxCell id="aW7nNPEuJqpVthHq0oI7-34" value="" style="endArrow=classic;html=1;rounded=0;fontSize=12;startSize=8;endSize=8;curved=1;exitX=0.5;exitY=1;exitDx=0;exitDy=0;entryX=0.5;entryY=0;entryDx=0;entryDy=0;" parent="1" source="aW7nNPEuJqpVthHq0oI7-3" target="aW7nNPEuJqpVthHq0oI7-5" edge="1">
          <mxGeometry width="50" height="50" relative="1" as="geometry">
            <mxPoint x="190" y="-45" as="sourcePoint" />
            <mxPoint x="240" y="-95" as="targetPoint" />
          </mxGeometry>
        </mxCell>
        <mxCell id="aW7nNPEuJqpVthHq0oI7-35" value="" style="endArrow=classic;html=1;rounded=0;fontSize=12;startSize=8;endSize=8;curved=1;exitX=1;exitY=0.5;exitDx=0;exitDy=0;entryX=0;entryY=0.5;entryDx=0;entryDy=0;" parent="1" source="aW7nNPEuJqpVthHq0oI7-5" target="aW7nNPEuJqpVthHq0oI7-6" edge="1">
          <mxGeometry width="50" height="50" relative="1" as="geometry">
            <mxPoint x="190" y="-45" as="sourcePoint" />
            <mxPoint x="240" y="-95" as="targetPoint" />
          </mxGeometry>
        </mxCell>
        <mxCell id="aW7nNPEuJqpVthHq0oI7-36" value="" style="endArrow=classic;html=1;rounded=0;fontSize=12;startSize=8;endSize=8;curved=1;exitX=0.5;exitY=1;exitDx=0;exitDy=0;" parent="1" source="aW7nNPEuJqpVthHq0oI7-5" target="aW7nNPEuJqpVthHq0oI7-7" edge="1">
          <mxGeometry width="50" height="50" relative="1" as="geometry">
            <mxPoint x="190" y="55" as="sourcePoint" />
            <mxPoint x="240" y="5" as="targetPoint" />
          </mxGeometry>
        </mxCell>
        <mxCell id="aW7nNPEuJqpVthHq0oI7-37" value="" style="endArrow=classic;html=1;rounded=0;fontSize=12;startSize=8;endSize=8;curved=1;exitX=1;exitY=0.5;exitDx=0;exitDy=0;entryX=0;entryY=0.5;entryDx=0;entryDy=0;" parent="1" source="aW7nNPEuJqpVthHq0oI7-7" target="aW7nNPEuJqpVthHq0oI7-8" edge="1">
          <mxGeometry width="50" height="50" relative="1" as="geometry">
            <mxPoint x="190" y="55" as="sourcePoint" />
            <mxPoint x="240" y="5" as="targetPoint" />
          </mxGeometry>
        </mxCell>
        <mxCell id="aW7nNPEuJqpVthHq0oI7-38" value="" style="endArrow=classic;html=1;rounded=0;fontSize=12;startSize=8;endSize=8;curved=1;exitX=0.5;exitY=1;exitDx=0;exitDy=0;" parent="1" source="aW7nNPEuJqpVthHq0oI7-7" target="aW7nNPEuJqpVthHq0oI7-9" edge="1">
          <mxGeometry width="50" height="50" relative="1" as="geometry">
            <mxPoint x="190" y="255" as="sourcePoint" />
            <mxPoint x="240" y="205" as="targetPoint" />
          </mxGeometry>
        </mxCell>
        <mxCell id="aW7nNPEuJqpVthHq0oI7-39" value="" style="endArrow=classic;html=1;rounded=0;fontSize=12;startSize=8;endSize=8;curved=1;exitX=1;exitY=0.5;exitDx=0;exitDy=0;entryX=0;entryY=0.5;entryDx=0;entryDy=0;" parent="1" source="aW7nNPEuJqpVthHq0oI7-9" target="aW7nNPEuJqpVthHq0oI7-10" edge="1">
          <mxGeometry width="50" height="50" relative="1" as="geometry">
            <mxPoint x="162.0000000000001" y="215" as="sourcePoint" />
            <mxPoint x="251.12" y="216" as="targetPoint" />
          </mxGeometry>
        </mxCell>
        <mxCell id="aW7nNPEuJqpVthHq0oI7-40" value="" style="endArrow=classic;html=1;rounded=0;fontSize=12;startSize=8;endSize=8;curved=1;exitX=0.5;exitY=1;exitDx=0;exitDy=0;entryX=0.5;entryY=0;entryDx=0;entryDy=0;" parent="1" source="aW7nNPEuJqpVthHq0oI7-9" target="aW7nNPEuJqpVthHq0oI7-11" edge="1">
          <mxGeometry width="50" height="50" relative="1" as="geometry">
            <mxPoint x="190" y="255" as="sourcePoint" />
            <mxPoint x="240" y="205" as="targetPoint" />
          </mxGeometry>
        </mxCell>
        <mxCell id="aW7nNPEuJqpVthHq0oI7-41" value="" style="endArrow=classic;html=1;rounded=0;fontSize=12;startSize=8;endSize=8;curved=1;exitX=0.959;exitY=0.488;exitDx=0;exitDy=0;exitPerimeter=0;entryX=0;entryY=0.5;entryDx=0;entryDy=0;" parent="1" source="aW7nNPEuJqpVthHq0oI7-11" target="aW7nNPEuJqpVthHq0oI7-12" edge="1">
          <mxGeometry width="50" height="50" relative="1" as="geometry">
            <mxPoint x="190" y="255" as="sourcePoint" />
            <mxPoint x="240" y="205" as="targetPoint" />
          </mxGeometry>
        </mxCell>
        <mxCell id="aW7nNPEuJqpVthHq0oI7-42" value="" style="endArrow=classic;html=1;rounded=0;fontSize=12;startSize=8;endSize=8;curved=1;exitX=0.5;exitY=1;exitDx=0;exitDy=0;entryX=0.5;entryY=0;entryDx=0;entryDy=0;" parent="1" source="aW7nNPEuJqpVthHq0oI7-11" target="aW7nNPEuJqpVthHq0oI7-13" edge="1">
          <mxGeometry width="50" height="50" relative="1" as="geometry">
            <mxPoint x="190" y="355" as="sourcePoint" />
            <mxPoint x="240" y="305" as="targetPoint" />
          </mxGeometry>
        </mxCell>
        <mxCell id="aW7nNPEuJqpVthHq0oI7-43" value="" style="endArrow=classic;html=1;rounded=0;fontSize=12;startSize=8;endSize=8;curved=1;exitX=0.5;exitY=1;exitDx=0;exitDy=0;entryX=0.5;entryY=0;entryDx=0;entryDy=0;" parent="1" source="aW7nNPEuJqpVthHq0oI7-13" target="aW7nNPEuJqpVthHq0oI7-14" edge="1">
          <mxGeometry width="50" height="50" relative="1" as="geometry">
            <mxPoint x="190" y="355" as="sourcePoint" />
            <mxPoint x="240" y="305" as="targetPoint" />
          </mxGeometry>
        </mxCell>
        <mxCell id="aW7nNPEuJqpVthHq0oI7-44" value="" style="endArrow=classic;html=1;rounded=0;fontSize=12;startSize=8;endSize=8;curved=1;exitX=0.5;exitY=1;exitDx=0;exitDy=0;entryX=0.5;entryY=0;entryDx=0;entryDy=0;" parent="1" source="aW7nNPEuJqpVthHq0oI7-14" target="aW7nNPEuJqpVthHq0oI7-15" edge="1">
          <mxGeometry width="50" height="50" relative="1" as="geometry">
            <mxPoint x="190" y="555" as="sourcePoint" />
            <mxPoint x="240" y="505" as="targetPoint" />
          </mxGeometry>
        </mxCell>
        <mxCell id="aW7nNPEuJqpVthHq0oI7-50" value="" style="endArrow=classic;html=1;rounded=0;fontSize=12;startSize=8;endSize=8;curved=0;exitX=1;exitY=0.467;exitDx=0;exitDy=0;entryX=1;entryY=0.5;entryDx=0;entryDy=0;exitPerimeter=0;" parent="1" source="aW7nNPEuJqpVthHq0oI7-4" target="aW7nNPEuJqpVthHq0oI7-15" edge="1">
          <mxGeometry width="50" height="50" relative="1" as="geometry">
            <mxPoint x="408" y="-192" as="sourcePoint" />
            <mxPoint x="393.00000000000006" y="691.9999999999995" as="targetPoint" />
            <Array as="points">
              <mxPoint x="816.31" y="-203" />
              <mxPoint x="804.31" y="688" />
            </Array>
          </mxGeometry>
        </mxCell>
        <mxCell id="aW7nNPEuJqpVthHq0oI7-51" value="" style="endArrow=classic;html=1;rounded=0;fontSize=12;startSize=8;endSize=8;curved=0;exitX=0.996;exitY=0.391;exitDx=0;exitDy=0;exitPerimeter=0;entryX=1;entryY=1;entryDx=0;entryDy=0;" parent="1" source="aW7nNPEuJqpVthHq0oI7-6" target="aW7nNPEuJqpVthHq0oI7-14" edge="1">
          <mxGeometry width="50" height="50" relative="1" as="geometry">
            <mxPoint x="388" y="209" as="sourcePoint" />
            <mxPoint x="743" y="574" as="targetPoint" />
            <Array as="points">
              <mxPoint x="753" y="-83" />
              <mxPoint x="753" y="608" />
            </Array>
          </mxGeometry>
        </mxCell>
        <mxCell id="aW7nNPEuJqpVthHq0oI7-52" value="" style="endArrow=classic;html=1;rounded=0;fontSize=12;startSize=8;endSize=8;curved=0;exitX=1;exitY=0.5;exitDx=0;exitDy=0;entryX=1;entryY=0.75;entryDx=0;entryDy=0;" parent="1" source="aW7nNPEuJqpVthHq0oI7-8" target="aW7nNPEuJqpVthHq0oI7-14" edge="1">
          <mxGeometry width="50" height="50" relative="1" as="geometry">
            <mxPoint x="567" y="127" as="sourcePoint" />
            <mxPoint x="690" y="548" as="targetPoint" />
            <Array as="points">
              <mxPoint x="694" y="62" />
              <mxPoint x="694" y="588" />
            </Array>
          </mxGeometry>
        </mxCell>
        <mxCell id="aW7nNPEuJqpVthHq0oI7-56" value="" style="endArrow=classic;html=1;rounded=0;fontSize=12;startSize=8;endSize=8;curved=0;exitX=1;exitY=0.5;exitDx=0;exitDy=0;entryX=1;entryY=0.5;entryDx=0;entryDy=0;" parent="1" source="aW7nNPEuJqpVthHq0oI7-10" target="aW7nNPEuJqpVthHq0oI7-14" edge="1">
          <mxGeometry width="50" height="50" relative="1" as="geometry">
            <mxPoint x="388" y="209" as="sourcePoint" />
            <mxPoint x="540" y="565" as="targetPoint" />
            <Array as="points">
              <mxPoint x="638" y="207" />
              <mxPoint x="635" y="573" />
            </Array>
          </mxGeometry>
        </mxCell>
        <mxCell id="aW7nNPEuJqpVthHq0oI7-57" value="" style="endArrow=classic;html=1;rounded=0;fontSize=12;startSize=8;endSize=8;curved=0;exitX=1;exitY=0.5;exitDx=0;exitDy=0;entryX=1;entryY=0.25;entryDx=0;entryDy=0;" parent="1" source="aW7nNPEuJqpVthHq0oI7-12" target="aW7nNPEuJqpVthHq0oI7-14" edge="1">
          <mxGeometry width="50" height="50" relative="1" as="geometry">
            <mxPoint x="388" y="209" as="sourcePoint" />
            <mxPoint x="573" y="554" as="targetPoint" />
            <Array as="points">
              <mxPoint x="586" y="339" />
              <mxPoint x="580" y="558" />
            </Array>
          </mxGeometry>
        </mxCell>
        <mxCell id="aW7nNPEuJqpVthHq0oI7-58" value="true" style="text;html=1;align=center;verticalAlign=middle;whiteSpace=wrap;rounded=0;" parent="1" vertex="1">
          <mxGeometry x="178" y="-241" width="60" height="30" as="geometry" />
        </mxCell>
        <mxCell id="aW7nNPEuJqpVthHq0oI7-59" value="true" style="text;html=1;align=center;verticalAlign=middle;whiteSpace=wrap;rounded=0;" parent="1" vertex="1">
          <mxGeometry x="178" y="-115" width="60" height="30" as="geometry" />
        </mxCell>
        <mxCell id="aW7nNPEuJqpVthHq0oI7-60" value="true" style="text;html=1;align=center;verticalAlign=middle;whiteSpace=wrap;rounded=0;" parent="1" vertex="1">
          <mxGeometry x="176" y="27" width="60" height="30" as="geometry" />
        </mxCell>
        <mxCell id="aW7nNPEuJqpVthHq0oI7-61" value="true" style="text;html=1;align=center;verticalAlign=middle;whiteSpace=wrap;rounded=0;" parent="1" vertex="1">
          <mxGeometry x="176" y="169" width="60" height="30" as="geometry" />
        </mxCell>
        <mxCell id="aW7nNPEuJqpVthHq0oI7-62" value="true" style="text;html=1;align=center;verticalAlign=middle;whiteSpace=wrap;rounded=0;" parent="1" vertex="1">
          <mxGeometry x="178" y="301" width="60" height="30" as="geometry" />
        </mxCell>
        <mxCell id="aW7nNPEuJqpVthHq0oI7-63" value="false" style="text;html=1;align=center;verticalAlign=middle;whiteSpace=wrap;rounded=0;" parent="1" vertex="1">
          <mxGeometry x="89.5" y="-161" width="60" height="30" as="geometry" />
        </mxCell>
        <mxCell id="aW7nNPEuJqpVthHq0oI7-64" value="false" style="text;html=1;align=center;verticalAlign=middle;whiteSpace=wrap;rounded=0;" parent="1" vertex="1">
          <mxGeometry x="85.25" y="-29" width="60" height="30" as="geometry" />
        </mxCell>
        <mxCell id="aW7nNPEuJqpVthHq0oI7-65" value="false" style="text;html=1;align=center;verticalAlign=middle;whiteSpace=wrap;rounded=0;" parent="1" vertex="1">
          <mxGeometry x="85.25" y="114" width="60" height="30" as="geometry" />
        </mxCell>
        <mxCell id="aW7nNPEuJqpVthHq0oI7-66" value="false" style="text;html=1;align=center;verticalAlign=middle;whiteSpace=wrap;rounded=0;" parent="1" vertex="1">
          <mxGeometry x="85.25" y="249" width="60" height="30" as="geometry" />
        </mxCell>
        <mxCell id="aW7nNPEuJqpVthHq0oI7-67" value="false" style="text;html=1;align=center;verticalAlign=middle;whiteSpace=wrap;rounded=0;" parent="1" vertex="1">
          <mxGeometry x="83" y="390" width="60" height="30" as="geometry" />
        </mxCell>
      </root>
    </mxGraphModel>
  </diagram>
  <diagram id="UZu2aCMRnq7B1Dj03yji" name="Exercise-3">
    <mxGraphModel dx="1145" dy="1223" grid="0" gridSize="10" guides="1" tooltips="1" connect="1" arrows="1" fold="1" page="0" pageScale="1" pageWidth="850" pageHeight="1100" math="0" shadow="0">
      <root>
        <mxCell id="0" />
        <mxCell id="1" parent="0" />
        <mxCell id="QhaIPitVlfGVP6CdXH8y-1" value="int Sum(int a[], int n)" style="rounded=1;whiteSpace=wrap;html=1;" vertex="1" parent="1">
          <mxGeometry x="63" y="-74" width="120" height="60" as="geometry" />
        </mxCell>
        <mxCell id="QhaIPitVlfGVP6CdXH8y-2" value="int i, total = 0;" style="rounded=1;whiteSpace=wrap;html=1;" vertex="1" parent="1">
          <mxGeometry x="63" y="58" width="120" height="60" as="geometry" />
        </mxCell>
        <mxCell id="QhaIPitVlfGVP6CdXH8y-3" value="i = 0" style="rounded=1;whiteSpace=wrap;html=1;" vertex="1" parent="1">
          <mxGeometry x="65" y="190" width="120" height="60" as="geometry" />
        </mxCell>
        <mxCell id="QhaIPitVlfGVP6CdXH8y-4" value="i &amp;lt; n" style="rhombus;whiteSpace=wrap;html=1;" vertex="1" parent="1">
          <mxGeometry x="70" y="326" width="113" height="80" as="geometry" />
        </mxCell>
        <mxCell id="QhaIPitVlfGVP6CdXH8y-5" value="total = total + a[i];" style="rounded=1;whiteSpace=wrap;html=1;" vertex="1" parent="1">
          <mxGeometry x="63" y="482" width="120" height="60" as="geometry" />
        </mxCell>
        <mxCell id="QhaIPitVlfGVP6CdXH8y-6" value="i++;" style="rounded=1;whiteSpace=wrap;html=1;" vertex="1" parent="1">
          <mxGeometry x="-105" y="482" width="120" height="60" as="geometry" />
        </mxCell>
        <mxCell id="QhaIPitVlfGVP6CdXH8y-8" value="return total;" style="rounded=1;whiteSpace=wrap;html=1;" vertex="1" parent="1">
          <mxGeometry x="291" y="343" width="120" height="60" as="geometry" />
        </mxCell>
        <mxCell id="QhaIPitVlfGVP6CdXH8y-9" value="exit" style="rounded=1;whiteSpace=wrap;html=1;" vertex="1" parent="1">
          <mxGeometry x="291" y="478" width="120" height="60" as="geometry" />
        </mxCell>
        <mxCell id="QhaIPitVlfGVP6CdXH8y-10" value="" style="endArrow=classic;html=1;rounded=0;fontSize=12;startSize=8;endSize=8;curved=1;exitX=0.5;exitY=1;exitDx=0;exitDy=0;" edge="1" parent="1" source="QhaIPitVlfGVP6CdXH8y-1" target="QhaIPitVlfGVP6CdXH8y-2">
          <mxGeometry width="50" height="50" relative="1" as="geometry">
            <mxPoint x="175" y="325" as="sourcePoint" />
            <mxPoint x="225" y="275" as="targetPoint" />
          </mxGeometry>
        </mxCell>
        <mxCell id="QhaIPitVlfGVP6CdXH8y-11" value="" style="endArrow=classic;html=1;rounded=0;fontSize=12;startSize=8;endSize=8;curved=1;exitX=0.5;exitY=1;exitDx=0;exitDy=0;entryX=0.5;entryY=0;entryDx=0;entryDy=0;" edge="1" parent="1" source="QhaIPitVlfGVP6CdXH8y-2" target="QhaIPitVlfGVP6CdXH8y-3">
          <mxGeometry width="50" height="50" relative="1" as="geometry">
            <mxPoint x="175" y="325" as="sourcePoint" />
            <mxPoint x="225" y="275" as="targetPoint" />
          </mxGeometry>
        </mxCell>
        <mxCell id="QhaIPitVlfGVP6CdXH8y-12" value="" style="endArrow=classic;html=1;rounded=0;fontSize=12;startSize=8;endSize=8;curved=1;exitX=0.5;exitY=1;exitDx=0;exitDy=0;entryX=0.5;entryY=0;entryDx=0;entryDy=0;" edge="1" parent="1" source="QhaIPitVlfGVP6CdXH8y-3" target="QhaIPitVlfGVP6CdXH8y-4">
          <mxGeometry width="50" height="50" relative="1" as="geometry">
            <mxPoint x="175" y="325" as="sourcePoint" />
            <mxPoint x="225" y="275" as="targetPoint" />
          </mxGeometry>
        </mxCell>
        <mxCell id="QhaIPitVlfGVP6CdXH8y-13" value="" style="endArrow=classic;html=1;rounded=0;fontSize=12;startSize=8;endSize=8;curved=1;exitX=0.5;exitY=1;exitDx=0;exitDy=0;entryX=0.558;entryY=0;entryDx=0;entryDy=0;entryPerimeter=0;" edge="1" parent="1" source="QhaIPitVlfGVP6CdXH8y-4" target="QhaIPitVlfGVP6CdXH8y-5">
          <mxGeometry width="50" height="50" relative="1" as="geometry">
            <mxPoint x="175" y="325" as="sourcePoint" />
            <mxPoint x="225" y="275" as="targetPoint" />
          </mxGeometry>
        </mxCell>
        <mxCell id="QhaIPitVlfGVP6CdXH8y-14" value="" style="endArrow=classic;html=1;rounded=0;fontSize=12;startSize=8;endSize=8;curved=1;exitX=0;exitY=0.5;exitDx=0;exitDy=0;entryX=1;entryY=0.5;entryDx=0;entryDy=0;" edge="1" parent="1" source="QhaIPitVlfGVP6CdXH8y-5" target="QhaIPitVlfGVP6CdXH8y-6">
          <mxGeometry width="50" height="50" relative="1" as="geometry">
            <mxPoint x="175" y="325" as="sourcePoint" />
            <mxPoint x="225" y="275" as="targetPoint" />
          </mxGeometry>
        </mxCell>
        <mxCell id="QhaIPitVlfGVP6CdXH8y-15" value="" style="endArrow=classic;html=1;rounded=0;fontSize=12;startSize=8;endSize=8;curved=0;entryX=0.062;entryY=0.525;entryDx=0;entryDy=0;entryPerimeter=0;" edge="1" parent="1" target="QhaIPitVlfGVP6CdXH8y-4">
          <mxGeometry width="50" height="50" relative="1" as="geometry">
            <mxPoint x="-44" y="481" as="sourcePoint" />
            <mxPoint x="225" y="275" as="targetPoint" />
            <Array as="points">
              <mxPoint x="-44" y="368" />
            </Array>
          </mxGeometry>
        </mxCell>
        <mxCell id="QhaIPitVlfGVP6CdXH8y-16" value="" style="endArrow=classic;html=1;rounded=0;fontSize=12;startSize=8;endSize=8;curved=1;exitX=1;exitY=0.5;exitDx=0;exitDy=0;entryX=0.017;entryY=0.4;entryDx=0;entryDy=0;entryPerimeter=0;" edge="1" parent="1" source="QhaIPitVlfGVP6CdXH8y-4" target="QhaIPitVlfGVP6CdXH8y-8">
          <mxGeometry width="50" height="50" relative="1" as="geometry">
            <mxPoint x="175" y="325" as="sourcePoint" />
            <mxPoint x="225" y="275" as="targetPoint" />
          </mxGeometry>
        </mxCell>
        <mxCell id="QhaIPitVlfGVP6CdXH8y-17" value="" style="endArrow=classic;html=1;rounded=0;fontSize=12;startSize=8;endSize=8;curved=1;exitX=0.5;exitY=1;exitDx=0;exitDy=0;" edge="1" parent="1" source="QhaIPitVlfGVP6CdXH8y-8" target="QhaIPitVlfGVP6CdXH8y-9">
          <mxGeometry width="50" height="50" relative="1" as="geometry">
            <mxPoint x="175" y="325" as="sourcePoint" />
            <mxPoint x="225" y="275" as="targetPoint" />
          </mxGeometry>
        </mxCell>
        <mxCell id="QhaIPitVlfGVP6CdXH8y-18" value="true" style="text;html=1;align=center;verticalAlign=middle;whiteSpace=wrap;rounded=0;" vertex="1" parent="1">
          <mxGeometry x="123" y="422" width="60" height="30" as="geometry" />
        </mxCell>
        <mxCell id="QhaIPitVlfGVP6CdXH8y-19" value="false" style="text;html=1;align=center;verticalAlign=middle;whiteSpace=wrap;rounded=0;" vertex="1" parent="1">
          <mxGeometry x="201" y="334" width="60" height="30" as="geometry" />
        </mxCell>
        <mxCell id="QhaIPitVlfGVP6CdXH8y-20" value="(0)" style="text;html=1;align=center;verticalAlign=middle;whiteSpace=wrap;rounded=0;" vertex="1" parent="1">
          <mxGeometry x="-7" y="-59" width="60" height="30" as="geometry" />
        </mxCell>
        <mxCell id="QhaIPitVlfGVP6CdXH8y-21" style="edgeStyle=none;curved=1;rounded=0;orthogonalLoop=1;jettySize=auto;html=1;exitX=0.25;exitY=1;exitDx=0;exitDy=0;fontSize=12;startSize=8;endSize=8;" edge="1" parent="1" source="QhaIPitVlfGVP6CdXH8y-20" target="QhaIPitVlfGVP6CdXH8y-20">
          <mxGeometry relative="1" as="geometry" />
        </mxCell>
        <mxCell id="QhaIPitVlfGVP6CdXH8y-22" value="(1)" style="text;html=1;align=center;verticalAlign=middle;whiteSpace=wrap;rounded=0;" vertex="1" parent="1">
          <mxGeometry x="-3" y="73" width="60" height="30" as="geometry" />
        </mxCell>
        <mxCell id="QhaIPitVlfGVP6CdXH8y-23" value="(2)" style="text;html=1;align=center;verticalAlign=middle;whiteSpace=wrap;rounded=0;" vertex="1" parent="1">
          <mxGeometry x="3" y="203" width="60" height="30" as="geometry" />
        </mxCell>
        <mxCell id="QhaIPitVlfGVP6CdXH8y-24" value="(3)" style="text;html=1;align=center;verticalAlign=middle;whiteSpace=wrap;rounded=0;" vertex="1" parent="1">
          <mxGeometry x="36" y="326" width="60" height="30" as="geometry" />
        </mxCell>
        <mxCell id="QhaIPitVlfGVP6CdXH8y-25" value="(4)" style="text;html=1;align=center;verticalAlign=middle;whiteSpace=wrap;rounded=0;" vertex="1" parent="1">
          <mxGeometry x="53" y="446" width="60" height="30" as="geometry" />
        </mxCell>
        <mxCell id="QhaIPitVlfGVP6CdXH8y-26" value="(5)" style="text;html=1;align=center;verticalAlign=middle;whiteSpace=wrap;rounded=0;" vertex="1" parent="1">
          <mxGeometry x="-110" y="450" width="60" height="30" as="geometry" />
        </mxCell>
        <mxCell id="QhaIPitVlfGVP6CdXH8y-27" value="(6)" style="text;html=1;align=center;verticalAlign=middle;whiteSpace=wrap;rounded=0;" vertex="1" parent="1">
          <mxGeometry x="326" y="313" width="60" height="30" as="geometry" />
        </mxCell>
        <mxCell id="QhaIPitVlfGVP6CdXH8y-28" value="(7)" style="text;html=1;align=center;verticalAlign=middle;whiteSpace=wrap;rounded=0;" vertex="1" parent="1">
          <mxGeometry x="368" y="444" width="60" height="30" as="geometry" />
        </mxCell>
      </root>
    </mxGraphModel>
  </diagram>
  <diagram id="QbN83mpDyJQZtV-85qyu" name="Exercise-4">
    <mxGraphModel dx="745" dy="823" grid="0" gridSize="10" guides="1" tooltips="1" connect="1" arrows="1" fold="1" page="0" pageScale="1" pageWidth="850" pageHeight="1100" math="0" shadow="0">
      <root>
        <mxCell id="0" />
        <mxCell id="1" parent="0" />
      </root>
    </mxGraphModel>
  </diagram>
  <diagram id="HOAxho5hPBISaab_6Vu5" name="Exercise-5">
    <mxGraphModel dx="1546" dy="1666" grid="0" gridSize="10" guides="1" tooltips="1" connect="1" arrows="1" fold="1" page="0" pageScale="1" pageWidth="850" pageHeight="1100" math="0" shadow="0">
      <root>
        <mxCell id="0" />
        <mxCell id="1" parent="0" />
        <mxCell id="r_VhkrBgOm5IFYRx6OhT-1" value="calculate_shipping_fee&lt;br&gt;(float x, float y, int z)" style="rounded=1;whiteSpace=wrap;html=1;" vertex="1" parent="1">
          <mxGeometry x="-76" y="-88" width="189" height="60" as="geometry" />
        </mxCell>
        <mxCell id="r_VhkrBgOm5IFYRx6OhT-2" value="! (0 &amp;lt; x &amp;lt;= 1000) ||&amp;nbsp;&lt;br&gt;! (0 &amp;lt; y &amp;lt;= 100) ||&amp;nbsp;&lt;br&gt;! (0 &amp;lt; z &amp;lt;= 24)" style="rhombus;whiteSpace=wrap;html=1;" vertex="1" parent="1">
          <mxGeometry x="-74" y="30" width="185" height="91" as="geometry" />
        </mxCell>
        <mxCell id="r_VhkrBgOm5IFYRx6OhT-3" value="" style="endArrow=classic;html=1;rounded=0;fontSize=12;startSize=8;endSize=8;curved=1;exitX=0.5;exitY=1;exitDx=0;exitDy=0;" edge="1" parent="1" source="r_VhkrBgOm5IFYRx6OhT-1" target="r_VhkrBgOm5IFYRx6OhT-2">
          <mxGeometry width="50" height="50" relative="1" as="geometry">
            <mxPoint x="175" y="225" as="sourcePoint" />
            <mxPoint x="225" y="175" as="targetPoint" />
          </mxGeometry>
        </mxCell>
        <mxCell id="r_VhkrBgOm5IFYRx6OhT-4" value="return &quot;Invalid Input;&quot;" style="rounded=1;whiteSpace=wrap;html=1;" vertex="1" parent="1">
          <mxGeometry x="361" y="45.5" width="120" height="60" as="geometry" />
        </mxCell>
        <mxCell id="r_VhkrBgOm5IFYRx6OhT-5" value="" style="endArrow=classic;html=1;rounded=0;fontSize=12;startSize=8;endSize=8;curved=1;exitX=1;exitY=0.5;exitDx=0;exitDy=0;entryX=0;entryY=0.5;entryDx=0;entryDy=0;" edge="1" parent="1" source="r_VhkrBgOm5IFYRx6OhT-2" target="r_VhkrBgOm5IFYRx6OhT-4">
          <mxGeometry width="50" height="50" relative="1" as="geometry">
            <mxPoint x="175" y="225" as="sourcePoint" />
            <mxPoint x="225" y="175" as="targetPoint" />
          </mxGeometry>
        </mxCell>
        <mxCell id="r_VhkrBgOm5IFYRx6OhT-7" value="true" style="text;html=1;align=center;verticalAlign=middle;whiteSpace=wrap;rounded=0;" vertex="1" parent="1">
          <mxGeometry x="141" y="42" width="60" height="30" as="geometry" />
        </mxCell>
        <mxCell id="r_VhkrBgOm5IFYRx6OhT-8" value="x = round(x, 2)&lt;br&gt;y = round(y, 2)" style="rounded=1;whiteSpace=wrap;html=1;" vertex="1" parent="1">
          <mxGeometry x="-41.5" y="193" width="120" height="60" as="geometry" />
        </mxCell>
        <mxCell id="r_VhkrBgOm5IFYRx6OhT-9" value="" style="endArrow=classic;html=1;rounded=0;fontSize=12;startSize=8;endSize=8;curved=1;exitX=0.5;exitY=1;exitDx=0;exitDy=0;entryX=0.5;entryY=0;entryDx=0;entryDy=0;" edge="1" parent="1" source="r_VhkrBgOm5IFYRx6OhT-2" target="r_VhkrBgOm5IFYRx6OhT-8">
          <mxGeometry width="50" height="50" relative="1" as="geometry">
            <mxPoint x="175" y="225" as="sourcePoint" />
            <mxPoint x="225" y="175" as="targetPoint" />
          </mxGeometry>
        </mxCell>
        <mxCell id="r_VhkrBgOm5IFYRx6OhT-10" value="x &amp;lt; 10" style="rhombus;whiteSpace=wrap;html=1;" vertex="1" parent="1">
          <mxGeometry x="-52.75" y="317" width="142.5" height="80" as="geometry" />
        </mxCell>
        <mxCell id="r_VhkrBgOm5IFYRx6OhT-11" value="x &amp;lt; 50" style="rhombus;whiteSpace=wrap;html=1;" vertex="1" parent="1">
          <mxGeometry x="-52.75" y="453" width="142.5" height="80" as="geometry" />
        </mxCell>
        <mxCell id="r_VhkrBgOm5IFYRx6OhT-12" value="" style="endArrow=classic;html=1;rounded=0;fontSize=12;startSize=8;endSize=8;curved=1;exitX=0.5;exitY=1;exitDx=0;exitDy=0;entryX=0.5;entryY=0;entryDx=0;entryDy=0;" edge="1" parent="1" source="r_VhkrBgOm5IFYRx6OhT-8" target="r_VhkrBgOm5IFYRx6OhT-10">
          <mxGeometry width="50" height="50" relative="1" as="geometry">
            <mxPoint x="175" y="225" as="sourcePoint" />
            <mxPoint x="225" y="175" as="targetPoint" />
          </mxGeometry>
        </mxCell>
        <mxCell id="r_VhkrBgOm5IFYRx6OhT-13" value="y &amp;gt;= 10" style="rhombus;whiteSpace=wrap;html=1;" vertex="1" parent="1">
          <mxGeometry x="-49.5" y="745" width="136" height="80" as="geometry" />
        </mxCell>
        <mxCell id="r_VhkrBgOm5IFYRx6OhT-14" value="z &amp;lt; 12" style="rhombus;whiteSpace=wrap;html=1;" vertex="1" parent="1">
          <mxGeometry x="-47.74999999999999" y="1008" width="134.75" height="80" as="geometry" />
        </mxCell>
        <mxCell id="r_VhkrBgOm5IFYRx6OhT-15" value="exit;" style="rounded=1;whiteSpace=wrap;html=1;" vertex="1" parent="1">
          <mxGeometry x="821" y="599" width="120" height="60" as="geometry" />
        </mxCell>
        <mxCell id="r_VhkrBgOm5IFYRx6OhT-16" value="" style="endArrow=classic;html=1;rounded=0;fontSize=12;startSize=8;endSize=8;curved=0;exitX=1;exitY=0.5;exitDx=0;exitDy=0;entryX=0.5;entryY=0;entryDx=0;entryDy=0;" edge="1" parent="1" source="r_VhkrBgOm5IFYRx6OhT-4" target="r_VhkrBgOm5IFYRx6OhT-15">
          <mxGeometry width="50" height="50" relative="1" as="geometry">
            <mxPoint x="350" y="403" as="sourcePoint" />
            <mxPoint x="593" y="297" as="targetPoint" />
            <Array as="points">
              <mxPoint x="874" y="73" />
            </Array>
          </mxGeometry>
        </mxCell>
        <mxCell id="r_VhkrBgOm5IFYRx6OhT-17" value="false" style="text;html=1;align=center;verticalAlign=middle;whiteSpace=wrap;rounded=0;" vertex="1" parent="1">
          <mxGeometry x="-41.5" y="139" width="60" height="30" as="geometry" />
        </mxCell>
        <mxCell id="r_VhkrBgOm5IFYRx6OhT-18" value="distance_fee = x * 5000" style="rounded=1;whiteSpace=wrap;html=1;" vertex="1" parent="1">
          <mxGeometry x="239" y="327" width="133" height="60" as="geometry" />
        </mxCell>
        <mxCell id="r_VhkrBgOm5IFYRx6OhT-19" value="" style="endArrow=classic;html=1;rounded=0;fontSize=12;startSize=8;endSize=8;curved=1;exitX=1;exitY=0.5;exitDx=0;exitDy=0;entryX=0;entryY=0.5;entryDx=0;entryDy=0;" edge="1" parent="1" source="r_VhkrBgOm5IFYRx6OhT-10" target="r_VhkrBgOm5IFYRx6OhT-18">
          <mxGeometry width="50" height="50" relative="1" as="geometry">
            <mxPoint x="299" y="389" as="sourcePoint" />
            <mxPoint x="349" y="339" as="targetPoint" />
          </mxGeometry>
        </mxCell>
        <mxCell id="r_VhkrBgOm5IFYRx6OhT-20" value="true" style="text;html=1;align=center;verticalAlign=middle;whiteSpace=wrap;rounded=0;" vertex="1" parent="1">
          <mxGeometry x="128" y="324" width="60" height="30" as="geometry" />
        </mxCell>
        <mxCell id="r_VhkrBgOm5IFYRx6OhT-21" value="" style="endArrow=classic;html=1;rounded=0;fontSize=12;startSize=8;endSize=8;curved=1;exitX=0.5;exitY=1;exitDx=0;exitDy=0;" edge="1" parent="1" source="r_VhkrBgOm5IFYRx6OhT-10" target="r_VhkrBgOm5IFYRx6OhT-11">
          <mxGeometry width="50" height="50" relative="1" as="geometry">
            <mxPoint x="299" y="389" as="sourcePoint" />
            <mxPoint x="349" y="339" as="targetPoint" />
          </mxGeometry>
        </mxCell>
        <mxCell id="r_VhkrBgOm5IFYRx6OhT-22" value="false" style="text;html=1;align=center;verticalAlign=middle;whiteSpace=wrap;rounded=0;" vertex="1" parent="1">
          <mxGeometry x="-41.5" y="407" width="60" height="30" as="geometry" />
        </mxCell>
        <mxCell id="r_VhkrBgOm5IFYRx6OhT-23" value="distance_fee = x * 4500" style="rounded=1;whiteSpace=wrap;html=1;" vertex="1" parent="1">
          <mxGeometry x="239" y="463" width="133" height="60" as="geometry" />
        </mxCell>
        <mxCell id="r_VhkrBgOm5IFYRx6OhT-24" value="true" style="text;html=1;align=center;verticalAlign=middle;whiteSpace=wrap;rounded=0;" vertex="1" parent="1">
          <mxGeometry x="128" y="459" width="60" height="30" as="geometry" />
        </mxCell>
        <mxCell id="r_VhkrBgOm5IFYRx6OhT-25" value="" style="endArrow=classic;html=1;rounded=0;fontSize=12;startSize=8;endSize=8;curved=1;exitX=1;exitY=0.5;exitDx=0;exitDy=0;entryX=0;entryY=0.5;entryDx=0;entryDy=0;" edge="1" parent="1" source="r_VhkrBgOm5IFYRx6OhT-11" target="r_VhkrBgOm5IFYRx6OhT-23">
          <mxGeometry width="50" height="50" relative="1" as="geometry">
            <mxPoint x="259" y="346" as="sourcePoint" />
            <mxPoint x="309" y="296" as="targetPoint" />
          </mxGeometry>
        </mxCell>
        <mxCell id="r_VhkrBgOm5IFYRx6OhT-27" value="distance_fee = x * 4000" style="rounded=1;whiteSpace=wrap;html=1;" vertex="1" parent="1">
          <mxGeometry x="-47.75" y="602" width="132.5" height="60" as="geometry" />
        </mxCell>
        <mxCell id="r_VhkrBgOm5IFYRx6OhT-28" value="" style="endArrow=classic;html=1;rounded=0;fontSize=12;startSize=8;endSize=8;curved=1;exitX=0.5;exitY=1;exitDx=0;exitDy=0;" edge="1" parent="1" source="r_VhkrBgOm5IFYRx6OhT-11" target="r_VhkrBgOm5IFYRx6OhT-27">
          <mxGeometry width="50" height="50" relative="1" as="geometry">
            <mxPoint x="259" y="646" as="sourcePoint" />
            <mxPoint x="309" y="596" as="targetPoint" />
          </mxGeometry>
        </mxCell>
        <mxCell id="r_VhkrBgOm5IFYRx6OhT-29" value="false" style="text;html=1;align=center;verticalAlign=middle;whiteSpace=wrap;rounded=0;" vertex="1" parent="1">
          <mxGeometry x="-40.12" y="553" width="60" height="30" as="geometry" />
        </mxCell>
        <mxCell id="r_VhkrBgOm5IFYRx6OhT-30" value="" style="endArrow=classic;html=1;rounded=0;fontSize=12;startSize=8;endSize=8;curved=1;exitX=0.5;exitY=1;exitDx=0;exitDy=0;entryX=0.5;entryY=0;entryDx=0;entryDy=0;" edge="1" parent="1" source="r_VhkrBgOm5IFYRx6OhT-27" target="r_VhkrBgOm5IFYRx6OhT-13">
          <mxGeometry width="50" height="50" relative="1" as="geometry">
            <mxPoint x="259" y="746" as="sourcePoint" />
            <mxPoint x="309" y="696" as="targetPoint" />
          </mxGeometry>
        </mxCell>
        <mxCell id="r_VhkrBgOm5IFYRx6OhT-31" value="" style="endArrow=classic;html=1;rounded=0;fontSize=12;startSize=8;endSize=8;curved=0;exitX=0.5;exitY=1;exitDx=0;exitDy=0;" edge="1" parent="1" source="r_VhkrBgOm5IFYRx6OhT-23">
          <mxGeometry width="50" height="50" relative="1" as="geometry">
            <mxPoint x="259" y="746" as="sourcePoint" />
            <mxPoint x="14" y="705" as="targetPoint" />
            <Array as="points">
              <mxPoint x="306" y="705" />
            </Array>
          </mxGeometry>
        </mxCell>
        <mxCell id="r_VhkrBgOm5IFYRx6OhT-33" value="" style="endArrow=classic;html=1;rounded=0;fontSize=12;startSize=8;endSize=8;curved=0;exitX=1;exitY=0.5;exitDx=0;exitDy=0;" edge="1" parent="1" source="r_VhkrBgOm5IFYRx6OhT-18">
          <mxGeometry width="50" height="50" relative="1" as="geometry">
            <mxPoint x="259" y="746" as="sourcePoint" />
            <mxPoint x="17" y="721" as="targetPoint" />
            <Array as="points">
              <mxPoint x="498" y="357" />
              <mxPoint x="498" y="721" />
            </Array>
          </mxGeometry>
        </mxCell>
        <mxCell id="r_VhkrBgOm5IFYRx6OhT-34" value="weight_fee = 50000" style="rounded=1;whiteSpace=wrap;html=1;" vertex="1" parent="1">
          <mxGeometry x="231" y="755" width="133" height="60" as="geometry" />
        </mxCell>
        <mxCell id="r_VhkrBgOm5IFYRx6OhT-35" value="" style="endArrow=classic;html=1;rounded=0;fontSize=12;startSize=8;endSize=8;curved=1;exitX=1;exitY=0.5;exitDx=0;exitDy=0;entryX=0;entryY=0.5;entryDx=0;entryDy=0;" edge="1" parent="1" source="r_VhkrBgOm5IFYRx6OhT-13" target="r_VhkrBgOm5IFYRx6OhT-34">
          <mxGeometry width="50" height="50" relative="1" as="geometry">
            <mxPoint x="78" y="823" as="sourcePoint" />
            <mxPoint x="128" y="773" as="targetPoint" />
          </mxGeometry>
        </mxCell>
        <mxCell id="r_VhkrBgOm5IFYRx6OhT-36" value="true" style="text;html=1;align=center;verticalAlign=middle;whiteSpace=wrap;rounded=0;" vertex="1" parent="1">
          <mxGeometry x="133" y="755" width="60" height="30" as="geometry" />
        </mxCell>
        <mxCell id="r_VhkrBgOm5IFYRx6OhT-37" value="" style="endArrow=classic;html=1;rounded=0;fontSize=12;startSize=8;endSize=8;curved=1;exitX=0.467;exitY=1;exitDx=0;exitDy=0;exitPerimeter=0;entryX=0.455;entryY=0.083;entryDx=0;entryDy=0;entryPerimeter=0;" edge="1" parent="1" source="r_VhkrBgOm5IFYRx6OhT-13" target="r_VhkrBgOm5IFYRx6OhT-39">
          <mxGeometry width="50" height="50" relative="1" as="geometry">
            <mxPoint x="78" y="823" as="sourcePoint" />
            <mxPoint x="14" y="889" as="targetPoint" />
          </mxGeometry>
        </mxCell>
        <mxCell id="r_VhkrBgOm5IFYRx6OhT-39" value="weight_fee = 50000" style="rounded=1;whiteSpace=wrap;html=1;" vertex="1" parent="1">
          <mxGeometry x="-46.5" y="890" width="133" height="60" as="geometry" />
        </mxCell>
        <mxCell id="r_VhkrBgOm5IFYRx6OhT-40" value="false" style="text;html=1;align=center;verticalAlign=middle;whiteSpace=wrap;rounded=0;" vertex="1" parent="1">
          <mxGeometry x="-49.5" y="840" width="60" height="30" as="geometry" />
        </mxCell>
        <mxCell id="r_VhkrBgOm5IFYRx6OhT-41" value="" style="endArrow=classic;html=1;rounded=0;fontSize=12;startSize=8;endSize=8;curved=1;exitX=0.5;exitY=1;exitDx=0;exitDy=0;" edge="1" parent="1" source="r_VhkrBgOm5IFYRx6OhT-39" target="r_VhkrBgOm5IFYRx6OhT-14">
          <mxGeometry width="50" height="50" relative="1" as="geometry">
            <mxPoint x="78" y="823" as="sourcePoint" />
            <mxPoint x="128" y="773" as="targetPoint" />
          </mxGeometry>
        </mxCell>
        <mxCell id="r_VhkrBgOm5IFYRx6OhT-42" value="time_fee = 50000" style="rounded=1;whiteSpace=wrap;html=1;" vertex="1" parent="1">
          <mxGeometry x="233" y="1018" width="133" height="60" as="geometry" />
        </mxCell>
        <mxCell id="r_VhkrBgOm5IFYRx6OhT-43" value="true" style="text;html=1;align=center;verticalAlign=middle;whiteSpace=wrap;rounded=0;" vertex="1" parent="1">
          <mxGeometry x="130" y="1015" width="60" height="30" as="geometry" />
        </mxCell>
        <mxCell id="r_VhkrBgOm5IFYRx6OhT-44" value="" style="endArrow=classic;html=1;rounded=0;fontSize=12;startSize=8;endSize=8;curved=1;exitX=1;exitY=0.5;exitDx=0;exitDy=0;entryX=0;entryY=0.5;entryDx=0;entryDy=0;" edge="1" parent="1" source="r_VhkrBgOm5IFYRx6OhT-14" target="r_VhkrBgOm5IFYRx6OhT-42">
          <mxGeometry width="50" height="50" relative="1" as="geometry">
            <mxPoint x="78" y="1023" as="sourcePoint" />
            <mxPoint x="128" y="973" as="targetPoint" />
          </mxGeometry>
        </mxCell>
        <mxCell id="r_VhkrBgOm5IFYRx6OhT-45" value="time_fee = 50000" style="rounded=1;whiteSpace=wrap;html=1;" vertex="1" parent="1">
          <mxGeometry x="-46.5" y="1162" width="133" height="60" as="geometry" />
        </mxCell>
        <mxCell id="r_VhkrBgOm5IFYRx6OhT-46" value="false" style="text;html=1;align=center;verticalAlign=middle;whiteSpace=wrap;rounded=0;" vertex="1" parent="1">
          <mxGeometry x="-49.5" y="1112" width="60" height="30" as="geometry" />
        </mxCell>
        <mxCell id="r_VhkrBgOm5IFYRx6OhT-47" value="" style="endArrow=classic;html=1;rounded=0;fontSize=12;startSize=8;endSize=8;curved=1;exitX=0.5;exitY=1;exitDx=0;exitDy=0;entryX=0.5;entryY=0;entryDx=0;entryDy=0;" edge="1" parent="1" source="r_VhkrBgOm5IFYRx6OhT-14" target="r_VhkrBgOm5IFYRx6OhT-45">
          <mxGeometry width="50" height="50" relative="1" as="geometry">
            <mxPoint x="78" y="1123" as="sourcePoint" />
            <mxPoint x="128" y="1073" as="targetPoint" />
          </mxGeometry>
        </mxCell>
        <mxCell id="r_VhkrBgOm5IFYRx6OhT-48" value="" style="endArrow=classic;html=1;rounded=0;fontSize=12;startSize=8;endSize=8;curved=1;exitX=1;exitY=0.5;exitDx=0;exitDy=0;entryX=0;entryY=0.5;entryDx=0;entryDy=0;" edge="1" parent="1" source="r_VhkrBgOm5IFYRx6OhT-45" target="r_VhkrBgOm5IFYRx6OhT-49">
          <mxGeometry width="50" height="50" relative="1" as="geometry">
            <mxPoint x="154" y="1208" as="sourcePoint" />
            <mxPoint x="514" y="1192" as="targetPoint" />
          </mxGeometry>
        </mxCell>
        <mxCell id="r_VhkrBgOm5IFYRx6OhT-49" value="return distance_fee + weight_fee + time_fee;" style="rounded=1;whiteSpace=wrap;html=1;" vertex="1" parent="1">
          <mxGeometry x="539" y="1162" width="219" height="60" as="geometry" />
        </mxCell>
        <mxCell id="r_VhkrBgOm5IFYRx6OhT-50" value="" style="endArrow=classic;html=1;rounded=0;fontSize=12;startSize=8;endSize=8;curved=0;exitX=1;exitY=0.5;exitDx=0;exitDy=0;entryX=0.5;entryY=1;entryDx=0;entryDy=0;" edge="1" parent="1" source="r_VhkrBgOm5IFYRx6OhT-49" target="r_VhkrBgOm5IFYRx6OhT-15">
          <mxGeometry width="50" height="50" relative="1" as="geometry">
            <mxPoint x="493" y="908" as="sourcePoint" />
            <mxPoint x="850" y="912" as="targetPoint" />
            <Array as="points">
              <mxPoint x="895" y="1192" />
            </Array>
          </mxGeometry>
        </mxCell>
        <mxCell id="r_VhkrBgOm5IFYRx6OhT-51" value="" style="endArrow=classic;html=1;rounded=0;fontSize=12;startSize=8;endSize=8;curved=0;exitX=0.5;exitY=1;exitDx=0;exitDy=0;" edge="1" parent="1" source="r_VhkrBgOm5IFYRx6OhT-34">
          <mxGeometry width="50" height="50" relative="1" as="geometry">
            <mxPoint x="276" y="842" as="sourcePoint" />
            <mxPoint x="17" y="980" as="targetPoint" />
            <Array as="points">
              <mxPoint x="300" y="977" />
            </Array>
          </mxGeometry>
        </mxCell>
        <mxCell id="r_VhkrBgOm5IFYRx6OhT-53" value="" style="endArrow=classic;html=1;rounded=0;fontSize=12;startSize=8;endSize=8;curved=1;exitX=0.5;exitY=1;exitDx=0;exitDy=0;" edge="1" parent="1" source="r_VhkrBgOm5IFYRx6OhT-42">
          <mxGeometry width="50" height="50" relative="1" as="geometry">
            <mxPoint x="276" y="842" as="sourcePoint" />
            <mxPoint x="299" y="1193" as="targetPoint" />
          </mxGeometry>
        </mxCell>
        <mxCell id="r_VhkrBgOm5IFYRx6OhT-54" value="(0)" style="text;html=1;align=center;verticalAlign=middle;whiteSpace=wrap;rounded=0;" vertex="1" parent="1">
          <mxGeometry x="-134" y="-70" width="60" height="30" as="geometry" />
        </mxCell>
        <mxCell id="r_VhkrBgOm5IFYRx6OhT-55" value="(1)" style="text;html=1;align=center;verticalAlign=middle;whiteSpace=wrap;rounded=0;" vertex="1" parent="1">
          <mxGeometry x="-134" y="60.5" width="60" height="30" as="geometry" />
        </mxCell>
        <mxCell id="r_VhkrBgOm5IFYRx6OhT-56" value="(2)" style="text;html=1;align=center;verticalAlign=middle;whiteSpace=wrap;rounded=0;" vertex="1" parent="1">
          <mxGeometry x="295" y="30" width="60" height="30" as="geometry" />
        </mxCell>
        <mxCell id="r_VhkrBgOm5IFYRx6OhT-57" value="(3)" style="text;html=1;align=center;verticalAlign=middle;whiteSpace=wrap;rounded=0;" vertex="1" parent="1">
          <mxGeometry x="-104" y="208" width="60" height="30" as="geometry" />
        </mxCell>
        <mxCell id="r_VhkrBgOm5IFYRx6OhT-58" value="(4)" style="text;html=1;align=center;verticalAlign=middle;whiteSpace=wrap;rounded=0;" vertex="1" parent="1">
          <mxGeometry x="-119" y="342" width="60" height="30" as="geometry" />
        </mxCell>
        <mxCell id="r_VhkrBgOm5IFYRx6OhT-59" value="(5)" style="text;html=1;align=center;verticalAlign=middle;whiteSpace=wrap;rounded=0;" vertex="1" parent="1">
          <mxGeometry x="372" y="317" width="60" height="30" as="geometry" />
        </mxCell>
        <mxCell id="r_VhkrBgOm5IFYRx6OhT-60" value="(6)" style="text;html=1;align=center;verticalAlign=middle;whiteSpace=wrap;rounded=0;" vertex="1" parent="1">
          <mxGeometry x="-109.5" y="459" width="60" height="30" as="geometry" />
        </mxCell>
        <mxCell id="r_VhkrBgOm5IFYRx6OhT-61" value="(7)" style="text;html=1;align=center;verticalAlign=middle;whiteSpace=wrap;rounded=0;" vertex="1" parent="1">
          <mxGeometry x="364" y="450" width="60" height="30" as="geometry" />
        </mxCell>
        <mxCell id="r_VhkrBgOm5IFYRx6OhT-62" value="(8)" style="text;html=1;align=center;verticalAlign=middle;whiteSpace=wrap;rounded=0;" vertex="1" parent="1">
          <mxGeometry x="-107.75" y="614" width="60" height="30" as="geometry" />
        </mxCell>
        <mxCell id="r_VhkrBgOm5IFYRx6OhT-63" value="(9)" style="text;html=1;align=center;verticalAlign=middle;whiteSpace=wrap;rounded=0;" vertex="1" parent="1">
          <mxGeometry x="-109.5" y="770" width="60" height="30" as="geometry" />
        </mxCell>
        <mxCell id="r_VhkrBgOm5IFYRx6OhT-64" value="(10)" style="text;html=1;align=center;verticalAlign=middle;whiteSpace=wrap;rounded=0;" vertex="1" parent="1">
          <mxGeometry x="366" y="765" width="60" height="30" as="geometry" />
        </mxCell>
        <mxCell id="r_VhkrBgOm5IFYRx6OhT-65" value="(11)" style="text;html=1;align=center;verticalAlign=middle;whiteSpace=wrap;rounded=0;" vertex="1" parent="1">
          <mxGeometry x="-109.5" y="903" width="60" height="30" as="geometry" />
        </mxCell>
        <mxCell id="r_VhkrBgOm5IFYRx6OhT-66" value="(12)" style="text;html=1;align=center;verticalAlign=middle;whiteSpace=wrap;rounded=0;" vertex="1" parent="1">
          <mxGeometry x="-109.5" y="1033" width="60" height="30" as="geometry" />
        </mxCell>
        <mxCell id="r_VhkrBgOm5IFYRx6OhT-68" value="(13&lt;span style=&quot;background-color: transparent; color: light-dark(rgb(0, 0, 0), rgb(255, 255, 255));&quot;&gt;)&lt;/span&gt;" style="text;html=1;align=center;verticalAlign=middle;whiteSpace=wrap;rounded=0;" vertex="1" parent="1">
          <mxGeometry x="372" y="1029" width="60" height="30" as="geometry" />
        </mxCell>
        <mxCell id="r_VhkrBgOm5IFYRx6OhT-69" value="(14&lt;span style=&quot;background-color: transparent; color: light-dark(rgb(0, 0, 0), rgb(255, 255, 255));&quot;&gt;)&lt;/span&gt;" style="text;html=1;align=center;verticalAlign=middle;whiteSpace=wrap;rounded=0;" vertex="1" parent="1">
          <mxGeometry x="-112.75" y="1174" width="60" height="30" as="geometry" />
        </mxCell>
        <mxCell id="r_VhkrBgOm5IFYRx6OhT-70" value="(15&lt;span style=&quot;background-color: transparent; color: light-dark(rgb(0, 0, 0), rgb(255, 255, 255));&quot;&gt;)&lt;/span&gt;" style="text;html=1;align=center;verticalAlign=middle;whiteSpace=wrap;rounded=0;" vertex="1" parent="1">
          <mxGeometry x="479" y="1212" width="60" height="30" as="geometry" />
        </mxCell>
        <mxCell id="r_VhkrBgOm5IFYRx6OhT-71" value="(16&lt;span style=&quot;background-color: transparent; color: light-dark(rgb(0, 0, 0), rgb(255, 255, 255));&quot;&gt;)&lt;/span&gt;" style="text;html=1;align=center;verticalAlign=middle;whiteSpace=wrap;rounded=0;" vertex="1" parent="1">
          <mxGeometry x="802" y="563" width="60" height="30" as="geometry" />
        </mxCell>
      </root>
    </mxGraphModel>
  </diagram>
</mxfile>
